<?xml version="1.0" encoding="UTF-8"?>
<svg width="36" height="36" viewBox="0 0 36 36" fill="none" xmlns="http://www.w3.org/2000/svg">
  <path d="M18 2C9.163 2 2 9.163 2 18C2 26.837 9.163 34 18 34C26.837 34 34 26.837 34 18C34 9.163 26.837 2 18 2Z" fill="#000000"/>
  <path d="M18 6C11.373 6 6 11.373 6 18C6 24.627 11.373 30 18 30C24.627 30 30 24.627 30 18C30 11.373 24.627 6 18 6Z" fill="#000000" transform="rotate(-45 18 18)"/>
  <path d="M18 10C13.582 10 10 13.582 10 18C10 22.418 13.582 26 18 26C22.418 26 26 22.418 26 18C26 13.582 22.418 10 18 10Z" fill="#000000" transform="rotate(45 18 18)"/>
</svg> 