<?xml version="1.0" encoding="UTF-8"?>
<svg width="36" height="36" viewBox="0 0 36 36" fill="none" xmlns="http://www.w3.org/2000/svg">
  <path d="M18 2C9.163 2 2 9.163 2 18C2 26.837 9.163 34 18 34C26.837 34 34 26.837 34 18C34 9.163 26.837 2 18 2ZM18 32C10.268 32 4 25.732 4 18C4 10.268 10.268 4 18 4C25.732 4 32 10.268 32 18C32 25.732 25.732 32 18 32Z" fill="#000000"/>
  <path d="M18 6C11.373 6 6 11.373 6 18C6 24.627 11.373 30 18 30C24.627 30 30 24.627 30 18C30 11.373 24.627 6 18 6ZM18 28C12.477 28 8 23.523 8 18C8 12.477 12.477 8 18 8C23.523 8 28 12.477 28 18C28 23.523 23.523 28 18 28Z" fill="#000000"/>
  <path d="M18 10C13.582 10 10 13.582 10 18C10 22.418 13.582 26 18 26C22.418 26 26 22.418 26 18C26 13.582 22.418 10 18 10ZM18 24C14.686 24 12 21.314 12 18C12 14.686 14.686 12 18 12C21.314 12 24 14.686 24 18C24 21.314 21.314 24 18 24Z" fill="#000000"/>
</svg> 